/* XPM */
static char * collect_xpm[] = {
"32 32 6 1",
" 	c #CBDBFC",
".	c #5FCDE4",
"+	c #FFFFFF",
"@	c #8F563B",
"#	c #663931",
"$	c #45283C",
" .+      .++      .             ",
"  .+      .++      .            ",
"   .      ..++      .           ",
"    .      ..++      .          ",
"            ..++      .         ",
"             ..+      ..        ",
"              ..+      ..       ",
"               ..+      ..      ",
"                ..+      ..     ",
"             ++  ..       ..    ",
"   +   +       +  .+++++   ..   ",
"   .++++++   @##++++++++++  ..  ",
"    +++++++++$##+  ++     +++.. ",
"    +++++ +++$###$#   ####   +..",
"      ++      $$$$###########  .",
".  ##    ###$##$$$$#$$########  ",
"   ###########################  ",
"   ###++++####@ ++####@  ++ +#  ",
"   ###### +##$$$$$$$$$$$$$$$$#  ",
"   ################$$$$$$$$###  ",
"   ########################$$   ",
"   ##$$$$$$$$$$$$$$$$$$$$$$$$   ",
"    $##$$$$$$$$$$$$######$$$    ",
"     $$$$$$    .++$$$$$$$$$     ",
"                .++ .+    +     ",
"                 ..+ .+    +    ",
"                      .+   .+   ",
"                       .    .+  ",
"       +                .    .+ ",
"        +                     .+",
"+       ++      .              .",
".+      .++      .              "};
