/* XPM */
static char * Playerr_xpm[] = {
"32 32 34 1",
" 	c #CBDBFC",
".	c #5FCDE4",
"+	c #FFFFFF",
"@	c #753E2D",
"#	c #732612",
"$	c #A83D3B",
"%	c #D48C52",
"&	c #EBB385",
"*	c #C76B69",
"=	c #47120D",
"-	c #E38A8C",
";	c #FFD9AD",
">	c #C59896",
",	c #000000",
"'	c #141414",
")	c #949494",
"!	c #D3D3D3",
"~	c #28446C",
"{	c #570F05",
"]	c #932400",
"^	c #61666B",
"/	c #D33C38",
"(	c #FF645C",
"_	c #949CA1",
":	c #C4C7D4",
"<	c #E8F2FA",
"[	c #404545",
"}	c #47668F",
"|	c #1F3069",
"1	c #82ADD4",
"2	c #303430",
"3	c #7C8383",
"4	c #A3ABAF",
"5	c #DBE6EB",
" .+      .++ @@@@@@##@   $      ",
"  .+   $$#.@@%%&&&#**$@=$-#     ",
"   .  $**$@%&;;;;;;#$-*#*-##    ",
"    .$*-$@%;;;;;;;;;=#-$-$#=    ",
"     *-*$@&;;;;;;;;#$$=#$#=     ",
"    $*-#@%&;;;;;;;;>==#$=#$#    ",
"    $-*#@%&;;;;;;;;;;>$#>=#$    ",
"    $*$$@%&&;;;;;;;;;>$>;&=$    ",
"    $*#$,%&&;;;;;;;;;;>;;%,=    ",
"    #$#=,%%&&;;;;;;;;;;;;@,.    ",
"   +#$#=,%%%&%@%&&%@@@;;&, ..   ",
"   .=$=.,%%%%'@%&&%),,&&&,  ..  ",
"    =$= ,%%%'&@%&&%!,,&&&,   .. ",
"     =++ '%%'&'%;;&!~~&&&,    ..",
"     =.++,%%%''%;;;!~~;;;,     .",
".      .++'%%%'%;;;;;;;;;,      ",
"        .++,%%'@&;;;;;;;%,      ",
"         .+{]]]'@&;;;;&%,       ",
"         ^^{{]]/((@@@@,,        ",
"      ^^^_:{{{]{{](((/]{        ",
"    ^^_::<<{](/]]{{{{{{         ",
"   ^_::<::{](((/]]///]]         ",
"  ^_<<:<<_{/((]]{{]/(/]{        ",
"  ^<<<:<_[{//]((]/%{((/{        ",
"  ^_<:_^[^{]//(({/&{//]{  +     ",
"  [^__[[^_:,{]/]{]%,]]{    +    ",
"   [[[ [_::_,{{{{],}}|.+   .+   ",
"       [^:^[|||}}11}|| .    .+  ",
"       +[[[ ,2||}}}||   .    .+ ",
"        +    2334543          .+",
"+       ++   2222222           .",
".+      .++   ,3443,            "};
