/* XPM */
static char * Playerf_xpm[] = {
"32 32 31 1",
" 	c #CBDBFC",
".	c #5FCDE4",
"+	c #FFFFFF",
"@	c #A83D3B",
"#	c #753E2D",
"$	c #732612",
"%	c #C76B69",
"&	c #EBB385",
"*	c #E38A8C",
"=	c #D48C52",
"-	c #47120D",
";	c #FFD9AD",
">	c #C59896",
",	c #000000",
"'	c #949494",
")	c #D3D3D3",
"!	c #28446C",
"~	c #570F05",
"{	c #932400",
"]	c #D33C38",
"^	c #61666B",
"/	c #FF645C",
"(	c #1F3069",
"_	c #47668F",
":	c #82ADD4",
"<	c #404545",
"[	c #7C8383",
"}	c #504C4C",
"|	c #A3ABAF",
"1	c #DBE6EB",
"2	c #303430",
" .+      .++@###$##             ",
"  .+      #$%@&$*$==#           ",
"   .    #==$@*$%*$@%$=#         ",
"    .  #=$%@-%@*%-%$;&=#        ",
"       #&;$@$-@*@$$;;;&#        ",
"      #=;;;---$%-$@@-;;=#       ",
"      #=;;;;$%@--$$-;;;=#       ",
"      #&;;;$%>;;>-$>;;;&#.      ",
"      #&;;;@>;;;;>-;;;;&#..     ",
"      #&;;;;;;;;;;;;;;;&# ..    ",
"   +  ,=&;;;;;;;;;;;;;&=,  ..   ",
"   .++,=&&###;;;;;###&&=,   ..  ",
"    .,&,&&',,&&&&&,,'&&,&,   .. ",
"     ,&,=&),,&&&&&,,)&=,&,    ..",
"      ,,=&)!!&&&&&!!)&=,,      .",
".      ,#&)!!;;;;;!!)&#,        ",
"       ~,=&;;;;;;;;;&=,~        ",
"     ~~{~#=&;;;;;;;&=#~{~~      ",
"    ~{]]{~{#==&&&==#{~{]]{~     ",
"   ~{]]]{~{]{{###{{]{~{]]]{~    ",
"  ^~{{]]{{~{]////]]{~{{]]{{~^   ",
"  ~{]]{~~{{]{{~~~{{]{{~~{]]{~   ",
"  ~]]~]{,{]]]/////]]]{,{]~]]~   ",
"  ~{~]{=#~{]///////]{~#={]~{~   ",
"   ~~{{=#~~{]]]]]]{{~~#={{~~    ",
"    ~~~=,,(((((((((((,,=~~~+    ",
"     ,,,^(_:_(___(_:_(^,,, .+   ",
"       <^(_:__(,(__:_(^<    .+  ",
"       +<[(__([,[(__([< .    .+ ",
"        +}|11|}2}|11|}        .+",
"+       +22}}22 22}}22         .",
".+      .+,||}, ,}||,           "};
