/* XPM */
static char * Playerl_xpm[] = {
"32 32 34 1",
" 	c #CBDBFC",
".	c #5FCDE4",
"+	c #FFFFFF",
"@	c #A83D3B",
"#	c #753E2D",
"$	c #732612",
"%	c #E38A8C",
"&	c #47120D",
"*	c #C76B69",
"=	c #EBB385",
"-	c #D48C52",
";	c #FFD9AD",
">	c #C59896",
",	c #000000",
"'	c #949494",
")	c #141414",
"!	c #D3D3D3",
"~	c #28446C",
"{	c #932400",
"]	c #570F05",
"^	c #FF645C",
"/	c #D33C38",
"(	c #61666B",
"_	c #C4C7D4",
":	c #949CA1",
"<	c #E8F2FA",
"[	c #404545",
"}	c #1F3069",
"|	c #47668F",
"1	c #82ADD4",
"2	c #303430",
"3	c #7C8383",
"4	c #A3ABAF",
"5	c #DBE6EB",
" .+   @  .#$$######             ",
"  .+ $%@&#@**$===--## $@@       ",
"   .$$%*$*%@$;;;;;;=-#@**@      ",
"    &$@%@%$&;;;;;;;;;-#@%*@     ",
"     &$@$&@@$;;;;;;;;=#@*%*     ",
"    $@$&@$&&>;;;;;;;;=-#$%*@    ",
"    @$&>$@>;;;;;;;;;;=-#$*%@    ",
"    @&=;>@>;;;;;;;;;==-#@@*@    ",
"    &,-;;>;;;;;;;;;;==-,@$*@    ",
"     ,#;;;;;;;;;;;;==--,&$@$    ",
"   +  ,=;;###-==-#-=---,&$@$.   ",
"   .++,===,,'-==-#)----, &@&..  ",
"    .+,===,,!-==-#=)---, &@& .. ",
"     .,===~~!=;;-)=)--)   &   ..",
"      ,;;;~~!;;;-))---,   &    .",
".     ,;;;;;;;;;-)---)          ",
"      ,-;;;;;;;=#)--,           ",
"       ,-=;;;;=#){{{]           ",
"        ,,####^^/{{]]((         ",
"        ]{/^^^{]]{]]]_:(((      ",
"         ]]]]]]{{/^{]<<__:((    ",
"         {{///{{/^^^{]__<__:(   ",
"        ]{/^/{]]{{^^/]:<<_<<:(  ",
"        ]/^^]-/{^^{//][:<_<<<(  ",
"        ]{//]=/]^^//{]([(:_<:(  ",
"         ]{{,-{]{/{],_:([[::([  ",
"          }||,{]]]],:__:[ [[[   ",
"          }}|11||}}}[(_([   .+  ",
"       +   }}|||}}2, [[[.    .+ ",
"        +   3454332           .+",
"+       ++  2222222            .",
".+      .++ ,3443,              "};
