/* XPM */
static char * Playerb_xpm[] = {
"32 32 29 1",
" 	c #CBDBFC",
".	c #5FCDE4",
"+	c #FFFFFF",
"@	c #753E2D",
"#	c #EBB385",
"$	c #FFD9AD",
"%	c #D48C52",
"&	c #732612",
"*	c #A83D3B",
"=	c #E38A8C",
"-	c #C76B69",
";	c #000000",
">	c #47120D",
",	c #570F05",
"'	c #932400",
")	c #D33C38",
"!	c #FF645C",
"~	c #949CA1",
"{	c #61666B",
"]	c #C4C7D4",
"^	c #E8F2FA",
"/	c #404545",
"(	c #82ADD4",
"_	c #47668F",
":	c #1F3069",
"<	c #504C4C",
"[	c #A3ABAF",
"}	c #DBE6EB",
"|	c #7C8383",
" .+      .+@@@@@@@@@            ",
"  .+     @@#$$$$$$$#@@          ",
"   .    @#$$$$$$$$$$$#@         ",
"    .  @%$$$$$$$$$$$$$%@        ",
"       @$$$$$$$$$$$$$$#@        ",
"      @%$$$$$$&*&$$$$$#%@       ",
"      @%$$$$$&***&$$$$#%@       ",
"      @#$$$$$*=--*$$$###@.      ",
"      @#$$$$$-=-=*$$$###@..     ",
"      ;#$$$$$-===&$$$###; ..    ",
"   +  ;##$$$$--=*&$$####;  ..   ",
"   .++;%##$$$--**&$####%;   ..  ",
"    .+;%###$$*-**&#####%;    .. ",
"     .;@#####&--*&#####@;     ..",
"      .;#####>--*>#####;       .",
".      ;%###,>*-&>,###%;        ",
"        ;,,'')&-&)'',,;         ",
"      ,,'))',,>*>,,'))',,       ",
"     ,')!)~~~{!&!{~~~)))',      ",
"    ,'~~]]^^]~{>{~]^^]]~~',     ",
"    ~]^^]^^^~{/!/{~^^^]^^]~     ",
"   ~^^^^]]]~{{/!/{{~]]]^^^^~    ",
"  {]^^]]^^~/{{!!!{{/~^^]]^^]{   ",
"  {]]]^]^~/{~/!!!/~{/~^]^]]]{   ",
"  {~]^^]~/{~{))))){~{/~]^^]~{   ",
"   {~~~{/{~~/(___(/~~{/{~~~{    ",
"    ////{~]{/(_:_(/{]~{////.+   ",
"      /{~]]/__:;:__/]]~{/   .+  ",
"      /~]]~/_:<;<:_/~]]~/    .+ ",
"       /]]/[}}|;|}}[/]]/      .+",
"+       //<<<<< <<<<<//        .",
".+      .+;|||; ;|||;           "};
