/* XPM */
static char * tree_xpm[] = {
"32 32 6 1",
" 	c #CBDBFC",
".	c #5FCDE4",
"+	c #FFFFFF",
"@	c #3E734E",
"#	c #4D9262",
"$	c #7AB055",
" .+      .++      .             ",
"  .+      .++      .            ",
"   .      ..++      .           ",
"    .      ..++      .          ",
"            ..++      .         ",
"             ..++     ..        ",
"             ++++++    ..       ",
"            ++++++++    ..      ",
"           ++++++++ @    ..     ",
"          @+++++++  #@    ..    ",
"   +   +  @ ++     #@@     ..   ",
"   .++ .+@#$  $#####@+@     ..  ",
"    .++ @++###++#@@@@+@@     .. ",
"     .++@ +##++++++++ @@      ..",
"      .+@# ++++++++  #@+@      .",
".      @##$ ++++   ##@@+@@      ",
"      @++###+   $###@@@++@      ",
"      @ ++##+####@@@@##+ @      ",
"      @$ ++++########+++ @@     ",
"      @#$+++ ##+#++#++++#@@     ",
"      @#$ ++++++++++++++#+@     ",
"     @+@#$     ++++    +@+@@    ",
"     @ +@+####$ +++$###++ @@    ",
"     @# ++@@@@##++#@@@++ #@@    ",
"     @##  +###@++++@++  #@@     ",
"      @####+++     +  ##@@@+    ",
"       @#@@##########@@@@@ .+   ",
"        @@@@@@@@@@@@@@@@@   .+  ",
"       +    @@@@@@@@@   .    .+ ",
"        +                     .+",
"+       ++      .              .",
".+      .++      .              "};
