/* XPM */
static char * IceTileset_xpm[] = {
"32 32 6 1",
" 	c None",
".	c #FFFFFF",
"+	c #CBDBFC",
"@	c #3E734E",
"#	c #4D9262",
"$	c #7AB055",
"                                ",
"                                ",
"                                ",
"                                ",
"                                ",
"               ..               ",
"             ......             ",
"            ........            ",
"           ........+@           ",
"          @.......++#@          ",
"          @+..+++++#@@          ",
"         @#$++$#####@.@         ",
"        @..###..#@@@@.@@        ",
"        @+.##........+@@        ",
"        @#+........++#@.@       ",
"       @##$+....+++##@@.@@      ",
"      @..###.+++$###@@@..@      ",
"      @+..##.####@@@@##.+@      ",
"      @$+....########...+@@     ",
"      @#$...+##.#..#....#@@     ",
"      @#$+..............#.@     ",
"     @.@#$+++++....++++.@.@@    ",
"     @+.@.####$+...$###..+@@    ",
"     @#+..@@@@##..#@@@..+#@@    ",
"     @##++.###@....@..++#@@     ",
"      @####...+++++.++##@@@     ",
"       @#@@##########@@@@@      ",
"        @@@@@@@@@@@@@@@@@       ",
"            @@@@@@@@@           ",
"                                ",
"                                ",
"                                "};
